<svg width="500" height="500" viewBox="0 0 500 500" fill="none" xmlns="http://www.w3.org/2000/svg">
<g clip-path="url(#clip0_28_82)">
<path d="M189.776 12.6406C228.156 -4.21424 271.844 -4.2143 310.225 12.6406C336.003 23.961 359.342 47.3009 406.021 93.9795C452.699 140.658 476.038 163.998 487.359 189.775C504.214 228.156 504.214 271.843 487.359 310.224C476.038 336.001 452.699 359.341 406.021 406.02C359.342 452.698 336.003 476.038 310.225 487.358C271.844 504.213 228.156 504.213 189.776 487.358C163.998 476.038 140.659 452.698 93.9799 406.02C47.3012 359.341 23.9614 336.001 12.641 310.224C-4.21367 271.843 -4.21371 228.156 12.641 189.775C23.9614 163.998 47.3012 140.658 93.9799 93.9795C140.659 47.3007 163.998 23.961 189.776 12.6406Z" fill="#54137A"/>
<path d="M189.776 12.6406C228.156 -4.21424 271.844 -4.2143 310.225 12.6406C336.003 23.961 359.342 47.3009 406.021 93.9795C452.699 140.658 476.038 163.998 487.359 189.775C504.214 228.156 504.214 271.843 487.359 310.224C476.038 336.001 452.699 359.341 406.021 406.02C359.342 452.698 336.003 476.038 310.225 487.358C271.844 504.213 228.156 504.213 189.776 487.358C163.998 476.038 140.659 452.698 93.9799 406.02C47.3012 359.341 23.9614 336.001 12.641 310.224C-4.21367 271.843 -4.21371 228.156 12.641 189.775C23.9614 163.998 47.3012 140.658 93.9799 93.9795C140.659 47.3007 163.998 23.961 189.776 12.6406Z" fill="#C9A0FF" fill-opacity="0.1"/>
<path d="M104.072 82.5214C132.215 54.1151 146.287 39.9119 162.37 34.2304C178.339 28.5893 195.733 28.5893 211.701 34.2304C227.785 39.9119 241.857 54.1151 270 82.5214L330.332 143.417C380.111 193.661 405 218.782 405 250C405 281.217 380.111 306.339 330.332 356.582L270 417.478C241.857 445.884 227.785 460.087 211.701 465.769C195.733 471.41 178.339 471.41 162.37 465.769C146.287 460.087 132.215 445.884 104.072 417.478C47.7847 360.665 19.6412 332.259 8.38329 299.792C-2.79443 267.556 -2.79443 232.444 8.38329 200.208C19.6412 167.74 47.7847 139.334 104.072 82.5214Z" fill="#54137A"/>
<path d="M127.464 309.986C123.365 309.986 120.429 309.381 118.656 308.17C116.994 306.96 115.942 305.42 115.499 303.549C115.166 301.679 115 299.643 115 297.443V239.678C115 237.477 115.222 235.496 115.665 233.736C116.108 231.866 117.161 230.38 118.822 229.28C120.595 228.07 123.531 227.464 127.631 227.464C131.841 227.464 134.832 228.4 136.605 230.27C138.489 232.031 139.43 234.726 139.43 238.357L137.768 240.668C138.322 239.347 139.209 237.917 140.428 236.377C141.757 234.836 143.474 233.406 145.58 232.086C147.795 230.655 150.399 229.5 153.391 228.62C156.382 227.739 159.761 227.299 163.528 227.299C168.847 227.299 173.389 227.905 177.156 229.115C181.034 230.215 184.303 231.866 186.962 234.066C189.621 236.157 191.837 238.687 193.609 241.658C195.271 239.017 197.432 236.652 200.091 234.561C202.861 232.361 206.185 230.6 210.062 229.28C214.051 227.96 218.594 227.299 223.69 227.299C232 227.299 238.758 228.95 243.966 232.251C249.284 235.552 253.162 240.283 255.599 246.444C258.037 252.496 259.256 259.703 259.256 268.065V297.608C259.256 299.698 259.034 301.734 258.591 303.714C258.258 305.585 257.206 307.125 255.433 308.335C253.66 309.436 250.724 309.986 246.625 309.986C242.526 309.986 239.589 309.381 237.817 308.17C236.155 306.96 235.102 305.42 234.659 303.549C234.327 301.569 234.16 299.533 234.16 297.443V267.9C234.16 264.489 233.662 261.573 232.665 259.153C231.668 256.622 229.95 254.696 227.513 253.376C225.186 252.056 221.807 251.396 217.375 251.396C212.943 251.396 209.398 252.056 206.739 253.376C204.19 254.696 202.362 256.567 201.254 258.988C200.146 261.408 199.592 264.434 199.592 268.065V297.608C199.592 299.698 199.371 301.734 198.928 303.714C198.484 305.585 197.376 307.125 195.604 308.335C193.831 309.546 190.895 310.096 186.795 309.986C182.807 309.986 179.926 309.381 178.153 308.17C176.491 306.85 175.494 305.255 175.162 303.384C174.83 301.514 174.663 299.533 174.663 297.443V267.9C174.663 264.489 174.165 261.573 173.168 259.153C172.17 256.622 170.453 254.696 168.016 253.376C165.578 252.056 162.199 251.396 157.878 251.396C153.224 251.396 149.624 252.111 147.075 253.541C144.527 254.972 142.699 256.952 141.591 259.483C140.594 261.903 140.095 264.709 140.095 267.9V297.608C140.095 299.808 139.874 301.844 139.43 303.714C139.098 305.585 138.045 307.125 136.273 308.335C134.5 309.436 131.564 309.986 127.464 309.986Z" fill="white"/>
<path d="M283.92 309.986C279.82 309.986 276.884 309.381 275.112 308.17C273.45 306.96 272.397 305.42 271.954 303.549C271.621 301.679 271.455 299.643 271.455 297.443V239.678C271.455 237.477 271.677 235.496 272.12 233.736C272.563 231.866 273.616 230.38 275.278 229.28C277.05 228.07 279.987 227.464 284.086 227.464C288.296 227.464 291.288 228.4 293.06 230.27C294.944 232.031 295.886 234.726 295.886 238.357L294.224 240.668C294.778 239.347 295.664 237.917 296.883 236.377C298.212 234.836 299.93 233.406 302.035 232.086C304.251 230.655 306.854 229.5 309.846 228.62C312.837 227.739 316.217 227.299 319.984 227.299C325.302 227.299 329.844 227.905 333.611 229.115C337.489 230.215 340.758 231.866 343.417 234.066C346.076 236.157 348.292 238.687 350.065 241.658C351.727 239.017 353.887 236.652 356.546 234.561C359.316 232.361 362.64 230.6 366.518 229.28C370.506 227.96 375.049 227.299 380.146 227.299C388.455 227.299 395.214 228.95 400.421 232.251C405.739 235.552 409.617 240.283 412.055 246.444C414.492 252.496 415.711 259.703 415.711 268.065V297.608C415.711 299.698 415.489 301.734 415.046 303.714C414.714 305.585 413.661 307.125 411.888 308.335C410.116 309.436 407.18 309.986 403.08 309.986C398.981 309.986 396.045 309.381 394.272 308.17C392.61 306.96 391.558 305.42 391.114 303.549C390.782 301.569 390.616 299.533 390.616 297.443V267.9C390.616 264.489 390.117 261.573 389.12 259.153C388.123 256.622 386.406 254.696 383.968 253.376C381.641 252.056 378.262 251.396 373.83 251.396C369.398 251.396 365.853 252.056 363.194 253.376C360.646 254.696 358.817 256.567 357.71 258.988C356.602 261.408 356.048 264.434 356.048 268.065V297.608C356.048 299.698 355.826 301.734 355.383 303.714C354.94 305.585 353.832 307.125 352.059 308.335C350.286 309.546 347.35 310.096 343.251 309.986C339.262 309.986 336.381 309.381 334.609 308.17C332.947 306.85 331.95 305.255 331.617 303.384C331.285 301.514 331.119 299.533 331.119 297.443V267.9C331.119 264.489 330.62 261.573 329.623 259.153C328.626 256.622 326.908 254.696 324.471 253.376C322.033 252.056 318.654 251.396 314.333 251.396C309.68 251.396 306.079 252.111 303.531 253.541C300.982 254.972 299.154 256.952 298.046 259.483C297.049 261.903 296.55 264.709 296.55 267.9V297.608C296.55 299.808 296.329 301.844 295.886 303.714C295.553 305.585 294.501 307.125 292.728 308.335C290.955 309.436 288.019 309.986 283.92 309.986Z" fill="white"/>
<path d="M442.037 309.986C438.048 309.986 435.168 309.436 433.395 308.335C431.733 307.125 430.68 305.585 430.237 303.714C429.905 301.734 429.739 299.698 429.739 297.608V240.008C429.739 237.807 429.905 235.772 430.237 233.901C430.68 232.031 431.788 230.545 433.561 229.445C435.334 228.235 438.215 227.629 442.203 227.629C446.303 227.629 449.183 228.235 450.845 229.445C452.618 230.655 453.67 232.196 454.003 234.066C454.446 235.937 454.668 238.027 454.668 240.338V297.773C454.668 299.863 454.446 301.899 454.003 303.879C453.67 305.75 452.618 307.235 450.845 308.335C449.183 309.436 446.247 309.986 442.037 309.986ZM442.037 215.581C437.938 215.581 435.001 214.976 433.229 213.766C431.456 212.556 430.348 210.96 429.905 208.98C429.572 206.999 429.406 204.909 429.406 202.708C429.406 200.397 429.572 198.307 429.905 196.436C430.348 194.456 431.456 192.915 433.229 191.815C435.112 190.605 438.104 190 442.203 190C446.413 190 449.349 190.605 451.011 191.815C452.784 193.025 453.892 194.621 454.335 196.601C454.778 198.582 455 200.672 455 202.873C455 205.074 454.778 207.164 454.335 209.145C453.892 211.125 452.784 212.721 451.011 213.931C449.349 215.031 446.358 215.581 442.037 215.581Z" fill="white"/>
</g>
<defs>
<clipPath id="clip0_28_82">
<rect width="500" height="500" fill="white"/>
</clipPath>
</defs>
</svg>
